<svg width="14" height="14" viewBox="0 0 14 14" fill="none" xmlns="http://www.w3.org/2000/svg">
<path d="M0.452059 0.452042C1.05478 -0.150681 2.03199 -0.150681 2.63471 0.452042L13.548 11.3653C14.1507 11.968 14.1507 12.9452 13.548 13.5479C12.9452 14.1507 11.968 14.1507 11.3653 13.5479L0.452058 2.63469C-0.150664 2.03197 -0.150664 1.05476 0.452059 0.452042Z" fill="white"/>
<path d="M13.5479 0.45206C14.1507 1.05478 14.1507 2.03199 13.5479 2.63471L2.63469 13.548C2.03197 14.1507 1.05476 14.1507 0.452042 13.548C-0.150681 12.9452 -0.150681 11.968 0.452042 11.3653L11.3653 0.452059C11.968 -0.150663 12.9452 -0.150662 13.5479 0.45206Z" fill="white"/>
</svg>
