<svg width="16" height="16" viewBox="0 0 16 16" fill="none" xmlns="http://www.w3.org/2000/svg">
<g clip-path="url(#clip0_403_5048)">
<path fill-rule="evenodd" clip-rule="evenodd" d="M15.953 6.178L14.333 14.224C14.118 15.242 13.231 15.978 12.193 16H3.80698C2.76698 15.978 1.87998 15.243 1.66498 14.224L0.0459817 6.178C-0.0780183 5.645 0.0489817 5.084 0.392982 4.658C0.735982 4.232 1.25698 3.988 1.80298 4H4.00998C4.00998 1.79 5.79998 0 8.00498 0C10.211 0 12 1.79 12 4H14.197C14.744 3.99 15.265 4.232 15.609 4.658C15.952 5.084 16.079 5.645 15.955 6.178H15.953ZM3.58998 13.822C3.62598 13.917 3.70998 13.985 3.80998 14H12.192C12.292 13.984 12.375 13.916 12.41 13.822L12.78 12H3.22498L3.59098 13.822H3.58998ZM8.00398 2C6.89998 2 6.00598 2.895 6.00598 4H9.99998C9.99998 2.895 9.10598 2 8.00298 2H8.00398ZM2.01798 6L2.82298 10H13.185L13.995 5.994H2.00998L2.01998 6H2.01798Z" fill="#1F1712"/>
</g>
<defs>
<clipPath id="clip0_403_5048">
<rect width="16" height="16" fill="white"/>
</clipPath>
</defs>
</svg>
