<svg width="26" height="26" viewBox="0 0 26 26" fill="none" xmlns="http://www.w3.org/2000/svg">
<path d="M4.94339 24.4852C3.75963 24.4852 2.64732 24.0239 1.81074 23.1874C0.0836743 21.4602 0.0836743 18.6496 1.81074 16.9225L15.5058 3.22676C16.6092 2.12227 18.0777 1.51477 19.6389 1.51477C21.2004 1.51477 22.6689 2.12227 23.7723 3.22676C24.8767 4.33095 25.4849 5.79858 25.4849 7.35979C25.4849 8.92132 24.8774 10.3889 23.7732 11.4924L12.9922 22.2724C12.6685 22.5959 12.1443 22.5959 11.8208 22.2724C11.4971 21.9488 11.4971 21.4246 11.8208 21.1009L22.6016 10.3209C23.3929 9.52973 23.8281 8.478 23.8281 7.35979C23.8281 6.24179 23.392 5.1894 22.6008 4.39813C21.8095 3.60696 20.7578 3.17156 19.6389 3.17156C18.5203 3.17156 17.4685 3.60696 16.6772 4.39813L2.98227 18.0939C1.90149 19.1756 1.90149 20.9345 2.98227 22.0159C4.03065 23.0629 5.85593 23.0629 6.90426 22.0159L16.1003 12.8192C16.3503 12.5691 16.4936 12.223 16.4936 11.8702C16.4936 11.5124 16.3537 11.1752 16.0996 10.9211C15.577 10.3985 14.7251 10.397 14.2025 10.9211L7.92201 17.2023C7.59854 17.526 7.07412 17.526 6.75064 17.2023C6.42696 16.8788 6.42696 16.3544 6.75064 16.031L13.0309 9.74981C14.1991 8.58164 16.1012 8.58164 17.271 9.74981C17.8382 10.3168 18.1504 11.0701 18.1504 11.8702C18.1504 12.6597 17.83 13.4324 17.2719 13.9906L8.07583 23.1874C7.23926 24.0239 6.1269 24.4852 4.94339 24.4852Z" fill="white"/>
</svg>
