<svg width="26" height="26" viewBox="0 0 26 26" fill="none" xmlns="http://www.w3.org/2000/svg">
<path d="M4.94339 24.485C3.75963 24.485 2.64732 24.0237 1.81074 23.1873C0.0836744 21.4601 0.0836744 18.6495 1.81074 16.9224L15.5058 3.22664C16.6092 2.12214 18.0777 1.51465 19.6389 1.51465C21.2004 1.51465 22.6689 2.12214 23.7723 3.22664C24.8767 4.33082 25.4849 5.79845 25.4849 7.35967C25.4849 8.9212 24.8774 10.3888 23.7732 11.4923L12.9922 22.2723C12.6685 22.5958 12.1443 22.5958 11.8208 22.2723C11.4971 21.9487 11.4971 21.4245 11.8208 21.1008L22.6016 10.3208C23.3929 9.52961 23.8281 8.47788 23.8281 7.35967C23.8281 6.24167 23.392 5.18928 22.6008 4.39801C21.8095 3.60684 20.7578 3.17144 19.6389 3.17144C18.5203 3.17144 17.4685 3.60684 16.6772 4.39801L2.98227 18.0938C1.90149 19.1755 1.90149 20.9344 2.98227 22.0158C4.03065 23.0628 5.85593 23.0628 6.90426 22.0158L16.1003 12.8191C16.3503 12.569 16.4936 12.2229 16.4936 11.8701C16.4936 11.5123 16.3537 11.1751 16.0996 10.921C15.577 10.3984 14.7251 10.3968 14.2025 10.921L7.92201 17.2022C7.59854 17.5259 7.07412 17.5259 6.75064 17.2022C6.42696 16.8787 6.42696 16.3543 6.75064 16.0309L13.0309 9.74969C14.1991 8.58152 16.1012 8.58152 17.271 9.74969C17.8382 10.3167 18.1504 11.07 18.1504 11.8701C18.1504 12.6596 17.83 13.4322 17.2719 13.9904L8.07583 23.1873C7.23926 24.0237 6.1269 24.485 4.94339 24.485Z" fill="#1F1712"/>
</svg>
