<svg width="20" height="18" viewBox="0 0 20 18" fill="none" xmlns="http://www.w3.org/2000/svg">
<path d="M19.5706 0H0.429448C0.315571 6.67278e-05 0.206377 0.0465251 0.125854 0.129167C0.0453312 0.21181 6.51518e-05 0.323876 1.35132e-07 0.44075V4.13524C-4.58628e-05 4.19469 0.0116516 4.25352 0.0343858 4.3082C0.05712 4.36287 0.0904188 4.41225 0.13227 4.45334L7.36196 11.5708V17.5592C7.36196 17.6315 7.37929 17.7027 7.41243 17.7665C7.44556 17.8304 7.49349 17.8848 7.55197 17.9251C7.61045 17.9654 7.6777 17.9904 7.74779 17.9977C7.81788 18.0051 7.88865 17.9946 7.95386 17.9672L12.371 16.1138C12.45 16.0807 12.5175 16.0242 12.5651 15.9515C12.6126 15.8789 12.638 15.7933 12.638 15.7058V11.5708L19.868 4.45309C19.9097 4.41195 19.943 4.36256 19.9657 4.30789C19.9884 4.25322 20 4.19441 20 4.13499V0.44075C20 0.323856 19.9548 0.21175 19.8742 0.129093C19.7937 0.0464367 19.6844 0 19.5706 0V0ZM19.1411 0.8815V3.69424H0.858896V0.8815H19.1411ZM12.0368 10.9422H7.96319L1.49742 4.57574H18.5036L12.0368 10.9422ZM11.7791 15.4099L8.22086 16.9029V11.8237H11.7791V15.4099Z" fill="black"/>
</svg>
