<svg width="160" height="50" viewBox="0 0 160 50" fill="none" xmlns="http://www.w3.org/2000/svg">
<g clip-path="url(#clip0_403_5037)">
<path d="M11.9453 36.3505H1.24586C1.13435 36.3505 1.06294 36.2318 1.11519 36.1333L6.08632 26.7591C6.13195 26.6731 6.08341 26.5672 5.98843 26.5456L3.12286 25.8943C3.02444 25.872 2.97684 25.7598 3.02915 25.6734L8.73806 16.2537C8.78885 16.1699 8.74558 16.0608 8.65115 16.0346L6.36966 15.4008C6.27382 15.3742 6.23105 15.2625 6.28462 15.1787L15.2238 1.19323C15.2816 1.10267 15.4137 1.10213 15.4724 1.19221L21.3584 10.2367C21.3907 10.2862 21.3903 10.3502 21.3575 10.3994L14.761 20.2942C14.6955 20.3925 14.766 20.5241 14.8841 20.5241H17.294C17.4113 20.5241 17.4819 20.654 17.4182 20.7524L11.2056 30.3537C11.1419 30.4521 11.2125 30.582 11.3298 30.582H15.0835C15.199 30.582 15.27 30.7085 15.2097 30.807L8.97675 41.0065C8.91652 41.105 8.98745 41.2315 9.10296 41.2315H15.1994C15.281 41.2315 15.3473 41.2977 15.3473 41.3794V48.1833" stroke="white" stroke-width="2"/>
<path d="M36.0547 36.3505H46.7541C46.8656 36.3505 46.9371 36.2318 46.8848 36.1333L41.9137 26.7591C41.868 26.6731 41.9166 26.5672 42.0116 26.5456L44.8771 25.8943C44.9756 25.872 45.0232 25.7598 44.9708 25.6734L39.2619 16.2537C39.2111 16.1699 39.2544 16.0608 39.3488 16.0346L41.6303 15.4008C41.7262 15.3742 41.7689 15.2625 41.7154 15.1787L32.7762 1.19323C32.7184 1.10267 32.5863 1.10213 32.5276 1.19221L26.6416 10.2367C26.6093 10.2862 26.6097 10.3502 26.6425 10.3994L33.239 20.2942C33.3045 20.3925 33.234 20.5241 33.1159 20.5241H30.706C30.5887 20.5241 30.5181 20.654 30.5818 20.7524L36.7944 30.3537C36.8581 30.4521 36.7875 30.582 36.6702 30.582H32.9165C32.801 30.582 32.73 30.7085 32.7903 30.807L39.0232 41.0065C39.0835 41.105 39.0125 41.2315 38.897 41.2315H32.8006C32.719 41.2315 32.6527 41.2977 32.6527 41.3794V48.1833" stroke="white" stroke-width="2"/>
<path d="M21.1158 10.6141L24.0975 6.63846C24.1584 6.55722 24.2812 6.56013 24.3382 6.64415L27.0322 10.6141" stroke="white" stroke-width="2"/>
<path d="M14.9035 41.23H24.074M35.7588 41.23H24.074M24.074 41.23V49.66" stroke="white" stroke-width="2"/>
<path d="M75.488 28.0002H73.352L73.064 25.0002H64.424L64.136 28.0002H62V22.2162H63.464C63.56 22.0402 63.704 21.6402 63.896 21.0162C64.104 20.3922 64.312 19.5122 64.52 18.3762C64.728 17.2402 64.896 15.8322 65.024 14.1522C65.168 12.4722 65.232 10.4882 65.216 8.2002H73.76V22.2162H75.488V28.0002ZM70.736 22.2162V10.9842H68.072C67.992 13.8162 67.8 16.1922 67.496 18.1122C67.208 20.0322 66.912 21.4002 66.608 22.2162H70.736Z" fill="white"/>
<path d="M76.1234 19.0002C76.1234 16.8722 76.5394 15.2882 77.3714 14.2482C78.2034 13.2082 79.3634 12.6882 80.8514 12.6882C82.4514 12.6882 83.6434 13.2162 84.4274 14.2722C85.2114 15.3282 85.6034 16.9042 85.6034 19.0002C85.6034 21.1442 85.1874 22.7362 84.3554 23.7762C83.5234 24.8002 82.3554 25.3122 80.8514 25.3122C77.6994 25.3122 76.1234 23.2082 76.1234 19.0002ZM79.0754 19.0002C79.0754 20.2002 79.2114 21.1282 79.4834 21.7842C79.7554 22.4402 80.2114 22.7682 80.8514 22.7682C81.4594 22.7682 81.9074 22.4882 82.1954 21.9282C82.4994 21.3522 82.6514 20.3762 82.6514 19.0002C82.6514 17.7682 82.5154 16.8322 82.2434 16.1922C81.9714 15.5522 81.5074 15.2322 80.8514 15.2322C80.2914 15.2322 79.8514 15.5202 79.5314 16.0962C79.2274 16.6562 79.0754 17.6242 79.0754 19.0002Z" fill="white"/>
<path d="M94.3229 24.3522C93.9229 24.6722 93.4429 24.9122 92.8829 25.0722C92.3229 25.2322 91.7629 25.3122 91.2029 25.3122C90.3869 25.3122 89.6989 25.1682 89.1389 24.8802C88.5949 24.5762 88.1469 24.1522 87.7949 23.6082C87.4429 23.0482 87.1869 22.3842 87.0269 21.6162C86.8829 20.8322 86.8109 19.9602 86.8109 19.0002C86.8109 16.9042 87.1869 15.3282 87.9389 14.2722C88.6909 13.2162 89.7949 12.6882 91.2509 12.6882C91.9709 12.6882 92.5549 12.7522 93.0029 12.8802C93.4669 13.0082 93.8749 13.1682 94.2269 13.3602L93.5549 15.7362C93.2669 15.5922 92.9869 15.4882 92.7149 15.4242C92.4589 15.3442 92.1469 15.3042 91.7789 15.3042C91.1069 15.3042 90.6029 15.6002 90.2669 16.1922C89.9309 16.7682 89.7629 17.7042 89.7629 19.0002C89.7629 20.0882 89.9309 20.9762 90.2669 21.6642C90.6189 22.3522 91.1709 22.6962 91.9229 22.6962C92.3229 22.6962 92.6589 22.6482 92.9309 22.5522C93.2189 22.4402 93.4829 22.3042 93.7229 22.1442L94.3229 24.3522Z" fill="white"/>
<path d="M99.1376 20.0322H98.4896V25.0002H95.6336V13.0002H98.4896V18.1122L99.0656 17.7762L101.082 13.0002H104.154L101.97 17.6082L100.914 18.5442L102.066 19.4802L104.49 25.0002H101.274L99.1376 20.0322Z" fill="white"/>
<path d="M111.334 19.7682L111.55 17.8242H111.478L110.59 19.8642L107.374 25.0002H105.454V13.0002H108.31V18.4482L108.094 20.3202H108.166L109.03 18.3282L112.27 13.0002H114.19V25.0002H111.334V19.7682Z" fill="white"/>
<path d="M121.228 8.2002H130.036V10.9842H124.252V14.6322C124.492 14.5842 124.78 14.5362 125.116 14.4882C125.452 14.4402 125.78 14.4162 126.1 14.4162C126.868 14.4162 127.556 14.5122 128.164 14.7042C128.772 14.8802 129.292 15.1762 129.724 15.5922C130.156 15.9922 130.484 16.5202 130.708 17.1762C130.948 17.8322 131.068 18.6322 131.068 19.5762C131.068 21.4642 130.596 22.8802 129.652 23.8242C128.708 24.7682 127.308 25.2402 125.452 25.2402C125.228 25.2402 124.94 25.2322 124.588 25.2162C124.236 25.2002 123.86 25.1762 123.46 25.1442C123.06 25.1282 122.66 25.0962 122.26 25.0482C121.876 25.0002 121.532 24.9362 121.228 24.8562V8.2002ZM125.668 22.5522C126.34 22.5522 126.876 22.3442 127.276 21.9282C127.692 21.5122 127.9 20.8082 127.9 19.8162C127.9 19.2242 127.836 18.7522 127.708 18.4002C127.58 18.0482 127.404 17.7762 127.18 17.5842C126.972 17.3922 126.716 17.2642 126.412 17.2002C126.124 17.1362 125.804 17.1042 125.452 17.1042C125.276 17.1042 125.052 17.1282 124.78 17.1762C124.524 17.2082 124.348 17.2402 124.252 17.2722V22.4322C124.396 22.4642 124.604 22.4962 124.876 22.5282C125.148 22.5442 125.412 22.5522 125.668 22.5522Z" fill="white"/>
<path d="M132.594 13.0002H134.73L135.019 14.3682H135.09C135.458 13.7922 135.866 13.3762 136.314 13.1202C136.778 12.8482 137.347 12.7122 138.019 12.7122C139.235 12.7122 140.147 13.1762 140.755 14.1042C141.379 15.0162 141.69 16.5442 141.69 18.6882C141.69 20.8322 141.306 22.4802 140.538 23.6322C139.77 24.7682 138.658 25.3362 137.202 25.3362C136.818 25.3362 136.49 25.3042 136.218 25.2402C135.946 25.1762 135.691 25.0722 135.451 24.9282V29.8002H132.594V13.0002ZM135.451 22.3122C135.611 22.4722 135.787 22.5922 135.979 22.6722C136.187 22.7522 136.451 22.7922 136.771 22.7922C137.411 22.7922 137.898 22.4802 138.234 21.8562C138.57 21.2162 138.739 20.1362 138.739 18.6162C138.739 17.4802 138.61 16.6402 138.354 16.0962C138.098 15.5362 137.674 15.2562 137.082 15.2562C136.282 15.2562 135.739 15.7282 135.451 16.6722V22.3122Z" fill="white"/>
<path d="M146.935 19.7442L147.246 21.6162H147.367L147.582 19.7202L148.975 13.0002H151.903L148.903 23.8242C148.631 24.7682 148.374 25.6162 148.134 26.3682C147.894 27.1202 147.639 27.7602 147.367 28.2882C147.095 28.8162 146.783 29.2162 146.431 29.4882C146.095 29.7762 145.686 29.9202 145.206 29.9202C144.87 29.9202 144.543 29.8882 144.223 29.8242C143.919 29.7762 143.655 29.6882 143.431 29.5602L143.91 27.1122C144.118 27.1922 144.327 27.2242 144.535 27.2082C144.759 27.2082 144.958 27.1282 145.134 26.9682C145.326 26.8242 145.494 26.5922 145.638 26.2722C145.782 25.9522 145.902 25.5282 145.998 25.0002L141.823 13.0002H145.255L146.935 19.7442Z" fill="white"/>
<path d="M159.667 24.3522C159.267 24.6722 158.787 24.9122 158.227 25.0722C157.667 25.2322 157.107 25.3122 156.547 25.3122C155.731 25.3122 155.043 25.1682 154.483 24.8802C153.939 24.5762 153.491 24.1522 153.139 23.6082C152.787 23.0482 152.531 22.3842 152.371 21.6162C152.227 20.8322 152.155 19.9602 152.155 19.0002C152.155 16.9042 152.531 15.3282 153.283 14.2722C154.035 13.2162 155.139 12.6882 156.595 12.6882C157.315 12.6882 157.899 12.7522 158.347 12.8802C158.811 13.0082 159.219 13.1682 159.571 13.3602L158.899 15.7362C158.611 15.5922 158.331 15.4882 158.059 15.4242C157.803 15.3442 157.491 15.3042 157.123 15.3042C156.451 15.3042 155.947 15.6002 155.611 16.1922C155.275 16.7682 155.107 17.7042 155.107 19.0002C155.107 20.0882 155.275 20.9762 155.611 21.6642C155.963 22.3522 156.515 22.6962 157.267 22.6962C157.667 22.6962 158.003 22.6482 158.275 22.5522C158.563 22.4402 158.827 22.3042 159.067 22.1442L159.667 24.3522Z" fill="white"/>
<path d="M66.942 35.8242H64.394V44.0002H62.63V34.2002H68.706V44.0002H66.942V35.8242Z" fill="white"/>
<path d="M73.3738 40.9482L73.4998 39.8142H73.4578L72.9398 41.0042L71.0638 44.0002H69.9438V37.0002H71.6098V40.1782L71.4838 41.2702H71.5258L72.0298 40.1082L73.9198 37.0002H75.0398V44.0002H73.3738V40.9482Z" fill="white"/>
<path d="M79.4385 38.5262H78.4305C78.3932 39.3382 78.3419 40.0849 78.2765 40.7662C78.2112 41.4475 78.1085 42.0355 77.9685 42.5302C77.8285 43.0155 77.6372 43.3982 77.3945 43.6782C77.1612 43.9489 76.8532 44.0842 76.4705 44.0842C76.2372 44.0842 76.0365 44.0655 75.8685 44.0282C75.7005 44.0002 75.5559 43.9489 75.4345 43.8742L75.6305 42.4182C75.8545 42.4929 76.0412 42.4882 76.1905 42.4042C76.3492 42.3202 76.4799 42.0915 76.5825 41.7182C76.6852 41.3355 76.7645 40.7709 76.8205 40.0242C76.8859 39.2775 76.9325 38.2695 76.9605 37.0002H81.1045V44.0002H79.4385V38.5262Z" fill="white"/>
<path d="M82.0512 40.5002C82.0512 39.2589 82.2938 38.3349 82.7792 37.7282C83.2645 37.1215 83.9412 36.8182 84.8092 36.8182C85.7425 36.8182 86.4378 37.1262 86.8952 37.7422C87.3525 38.3582 87.5812 39.2775 87.5812 40.5002C87.5812 41.7509 87.3385 42.6795 86.8532 43.2862C86.3678 43.8835 85.6865 44.1822 84.8092 44.1822C82.9705 44.1822 82.0512 42.9549 82.0512 40.5002ZM83.7732 40.5002C83.7732 41.2002 83.8525 41.7415 84.0112 42.1242C84.1698 42.5069 84.4358 42.6982 84.8092 42.6982C85.1638 42.6982 85.4252 42.5349 85.5932 42.2082C85.7705 41.8722 85.8592 41.3029 85.8592 40.5002C85.8592 39.7815 85.7798 39.2355 85.6212 38.8622C85.4625 38.4889 85.1918 38.3022 84.8092 38.3022C84.4825 38.3022 84.2258 38.4702 84.0392 38.8062C83.8618 39.1329 83.7732 39.6975 83.7732 40.5002Z" fill="white"/>
<path d="M93.5215 40.7802L93.6195 39.3382H93.5495L93.1295 40.6402L92.1075 42.7402H91.4775L90.3575 40.6402L89.9235 39.3382H89.8395L90.0215 40.7802V44.0002H88.5375V37.0002H90.2875L91.5615 39.5762L91.8415 40.5142H91.8975L92.1915 39.5482L93.3675 37.0002H95.1035V44.0002H93.5215V40.7802Z" fill="white"/>
<path d="M96.3172 37.4202C96.5972 37.2522 96.9472 37.1169 97.3672 37.0142C97.7872 36.9115 98.2632 36.8602 98.7952 36.8602C99.5885 36.8602 100.139 37.0655 100.447 37.4762C100.765 37.8869 100.923 38.4702 100.923 39.2262C100.923 39.6649 100.909 40.0989 100.881 40.5282C100.863 40.9482 100.849 41.3635 100.839 41.7742C100.83 42.1755 100.835 42.5675 100.853 42.9502C100.881 43.3235 100.947 43.6782 101.049 44.0142H99.6912L99.4252 43.1602H99.3692C99.2198 43.4309 99.0098 43.6549 98.7392 43.8322C98.4685 44.0095 98.1278 44.0982 97.7172 44.0982C97.1665 44.0982 96.7325 43.9162 96.4152 43.5522C96.0978 43.1789 95.9392 42.6842 95.9392 42.0682C95.9392 41.2282 96.2378 40.6309 96.8352 40.2762C97.4325 39.9215 98.2398 39.7722 99.2572 39.8282C99.3038 39.2869 99.2665 38.8949 99.1452 38.6522C99.0332 38.4095 98.7858 38.2882 98.4032 38.2882C98.1232 38.2882 97.8338 38.3209 97.5352 38.3862C97.2365 38.4515 96.9705 38.5449 96.7372 38.6662L96.3172 37.4202ZM98.3192 42.6702C98.5712 42.6702 98.7765 42.6095 98.9352 42.4882C99.0938 42.3575 99.2105 42.2175 99.2852 42.0682V40.9062C99.0705 40.8782 98.8652 40.8735 98.6692 40.8922C98.4732 40.9109 98.3005 40.9529 98.1512 41.0182C98.0018 41.0835 97.8805 41.1815 97.7872 41.3122C97.7032 41.4335 97.6612 41.5922 97.6612 41.7882C97.6612 42.0775 97.7172 42.2969 97.8292 42.4462C97.9505 42.5955 98.1138 42.6702 98.3192 42.6702Z" fill="white"/>
<path d="M106.286 38.5262H104.76V44.0002H103.094V38.5262H101.498V37.0002H106.286V38.5262Z" fill="white"/>
<path d="M111.563 43.4822C111.329 43.6875 111.012 43.8555 110.611 43.9862C110.209 44.1169 109.789 44.1822 109.351 44.1822C108.865 44.1822 108.445 44.0982 108.091 43.9302C107.745 43.7622 107.461 43.5195 107.237 43.2022C107.013 42.8849 106.845 42.5022 106.733 42.0542C106.63 41.5969 106.579 41.0789 106.579 40.5002C106.579 39.2402 106.826 38.3115 107.321 37.7142C107.825 37.1075 108.52 36.8042 109.407 36.8042C109.705 36.8042 109.995 36.8509 110.275 36.9442C110.555 37.0282 110.802 37.1775 111.017 37.3922C111.241 37.5975 111.418 37.8775 111.549 38.2322C111.689 38.5775 111.759 39.0162 111.759 39.5482C111.759 39.7535 111.745 39.9729 111.717 40.2062C111.698 40.4395 111.665 40.6915 111.619 40.9622H108.217C108.235 41.5409 108.357 41.9842 108.581 42.2922C108.805 42.6002 109.164 42.7542 109.659 42.7542C109.957 42.7542 110.228 42.7075 110.471 42.6142C110.723 42.5209 110.914 42.4229 111.045 42.3202L111.563 43.4822ZM109.379 38.2322C109.024 38.2322 108.758 38.3769 108.581 38.6662C108.403 38.9462 108.301 39.3429 108.273 39.8562H110.205C110.233 39.3242 110.177 38.9229 110.037 38.6522C109.897 38.3722 109.677 38.2322 109.379 38.2322Z" fill="white"/>
<path d="M112.819 37.0002H114.065L114.233 37.7982H114.275C114.489 37.4622 114.727 37.2195 114.989 37.0702C115.259 36.9115 115.591 36.8322 115.983 36.8322C116.692 36.8322 117.224 37.1029 117.579 37.6442C117.943 38.1762 118.125 39.0675 118.125 40.3182C118.125 41.5689 117.901 42.5302 117.453 43.2022C117.005 43.8649 116.356 44.1962 115.507 44.1962C115.283 44.1962 115.091 44.1775 114.933 44.1402C114.774 44.1029 114.625 44.0422 114.485 43.9582V46.8002H112.819V37.0002ZM114.485 42.4322C114.578 42.5255 114.681 42.5955 114.793 42.6422C114.914 42.6889 115.068 42.7122 115.255 42.7122C115.628 42.7122 115.913 42.5302 116.109 42.1662C116.305 41.7929 116.403 41.1629 116.403 40.2762C116.403 39.6135 116.328 39.1235 116.179 38.8062C116.029 38.4795 115.782 38.3162 115.437 38.3162C114.97 38.3162 114.653 38.5915 114.485 39.1422V42.4322Z" fill="white"/>
<path d="M122.511 40.9482L122.637 39.8142H122.595L122.077 41.0042L120.201 44.0002H119.081V37.0002H120.747V40.1782L120.621 41.2702H120.663L121.167 40.1082L123.057 37.0002H124.177V44.0002H122.511V40.9482Z" fill="white"/>
<path d="M125.397 37.4202C125.677 37.2522 126.027 37.1169 126.447 37.0142C126.867 36.9115 127.343 36.8602 127.875 36.8602C128.669 36.8602 129.219 37.0655 129.527 37.4762C129.845 37.8869 130.003 38.4702 130.003 39.2262C130.003 39.6649 129.989 40.0989 129.961 40.5282C129.943 40.9482 129.929 41.3635 129.919 41.7742C129.91 42.1755 129.915 42.5675 129.933 42.9502C129.961 43.3235 130.027 43.6782 130.129 44.0142H128.771L128.505 43.1602H128.449C128.3 43.4309 128.09 43.6549 127.819 43.8322C127.549 44.0095 127.208 44.0982 126.797 44.0982C126.247 44.0982 125.813 43.9162 125.495 43.5522C125.178 43.1789 125.019 42.6842 125.019 42.0682C125.019 41.2282 125.318 40.6309 125.915 40.2762C126.513 39.9215 127.32 39.7722 128.337 39.8282C128.384 39.2869 128.347 38.8949 128.225 38.6522C128.113 38.4095 127.866 38.2882 127.483 38.2882C127.203 38.2882 126.914 38.3209 126.615 38.3862C126.317 38.4515 126.051 38.5449 125.817 38.6662L125.397 37.4202ZM127.399 42.6702C127.651 42.6702 127.857 42.6095 128.015 42.4882C128.174 42.3575 128.291 42.2175 128.365 42.0682V40.9062C128.151 40.8782 127.945 40.8735 127.749 40.8922C127.553 40.9109 127.381 40.9529 127.231 41.0182C127.082 41.0835 126.961 41.1815 126.867 41.3122C126.783 41.4335 126.741 41.5922 126.741 41.7882C126.741 42.0775 126.797 42.2969 126.909 42.4462C127.031 42.5955 127.194 42.6702 127.399 42.6702Z" fill="white"/>
<path d="M134.358 38.5262H133.35C133.313 39.3382 133.262 40.0849 133.196 40.7662C133.131 41.4475 133.028 42.0355 132.888 42.5302C132.748 43.0155 132.557 43.3982 132.314 43.6782C132.081 43.9489 131.773 44.0842 131.39 44.0842C131.157 44.0842 130.956 44.0655 130.788 44.0282C130.62 44.0002 130.476 43.9489 130.354 43.8742L130.55 42.4182C130.774 42.4929 130.961 42.4882 131.11 42.4042C131.269 42.3202 131.4 42.0915 131.502 41.7182C131.605 41.3355 131.684 40.7709 131.74 40.0242C131.806 39.2775 131.852 38.2695 131.88 37.0002H136.024V44.0002H134.358V38.5262Z" fill="white"/>
<path d="M138.889 42.5302C139.085 42.5862 139.286 42.6142 139.491 42.6142C139.79 42.6142 140 42.5395 140.121 42.3902C140.252 42.2315 140.317 41.9749 140.317 41.6202C140.317 41.2935 140.256 41.0509 140.135 40.8922C140.014 40.7335 139.804 40.6542 139.505 40.6542C139.29 40.6542 139.085 40.6822 138.889 40.7382V42.5302ZM138.889 39.4922C139.076 39.4549 139.267 39.4315 139.463 39.4222C139.659 39.4035 139.836 39.3942 139.995 39.3942C140.378 39.3942 140.7 39.4502 140.961 39.5622C141.222 39.6649 141.432 39.8142 141.591 40.0102C141.75 40.2062 141.862 40.4395 141.927 40.7102C142.002 40.9715 142.039 41.2562 142.039 41.5642C142.039 41.9842 141.992 42.3529 141.899 42.6702C141.806 42.9875 141.652 43.2535 141.437 43.4682C141.222 43.6735 140.942 43.8322 140.597 43.9442C140.252 44.0469 139.822 44.0982 139.309 44.0982C138.861 44.0982 138.464 44.0889 138.119 44.0702C137.783 44.0515 137.484 44.0282 137.223 44.0002V37.0002H138.889V39.4922ZM142.641 37.0002H144.307V44.0002H142.641V37.0002Z" fill="white"/>
</g>
<defs>
<clipPath id="clip0_403_5037">
<rect width="160" height="50" fill="white"/>
</clipPath>
</defs>
</svg>
