<svg width="18" height="18" viewBox="0 0 18 18" fill="none" xmlns="http://www.w3.org/2000/svg">
<path d="M9 8.55C8.43168 8.55 7.88663 8.31295 7.48477 7.89099C7.08291 7.46903 6.85714 6.89674 6.85714 6.3C6.85714 5.70326 7.08291 5.13097 7.48477 4.70901C7.88663 4.28705 8.43168 4.05 9 4.05C9.56832 4.05 10.1134 4.28705 10.5152 4.70901C10.9171 5.13097 11.1429 5.70326 11.1429 6.3C11.1429 6.59547 11.0874 6.88806 10.9797 7.16104C10.8721 7.43402 10.7142 7.68206 10.5152 7.89099C10.3162 8.09992 10.08 8.26566 9.82004 8.37873C9.56005 8.4918 9.2814 8.55 9 8.55V8.55ZM9 0C7.4087 0 5.88258 0.663748 4.75736 1.84523C3.63214 3.02671 3 4.62914 3 6.3C3 11.025 9 18 9 18C9 18 15 11.025 15 6.3C15 4.62914 14.3679 3.02671 13.2426 1.84523C12.1174 0.663748 10.5913 0 9 0V0Z" fill="white"/>
</svg>
