<svg width="16" height="18" viewBox="0 0 16 18" fill="none" xmlns="http://www.w3.org/2000/svg">
<path d="M1.77778 16.2C1.77778 17.1927 2.57511 18 3.55556 18H12.4444C13.4249 18 14.2222 17.1927 14.2222 16.2V5.4H16V3.6H12.4444V1.8C12.4444 0.8073 11.6471 0 10.6667 0H5.33333C4.35289 0 3.55556 0.8073 3.55556 1.8V3.6H0V5.4H1.77778V16.2ZM5.33333 1.8H10.6667V3.6H5.33333V1.8ZM4.44444 5.4H12.4444L12.4453 16.2H3.55556V5.4H4.44444Z" fill="#C5C5C5"/>
<path d="M5.3335 7.2002H7.11127V14.4002H5.3335V7.2002ZM8.88905 7.2002H10.6668V14.4002H8.88905V7.2002Z" fill="#C5C5C5"/>
</svg>
