<svg width="16" height="15" viewBox="0 0 16 15" fill="none" xmlns="http://www.w3.org/2000/svg">
<path d="M3.33346 12.5C3.33346 13.1894 3.93146 13.75 4.66679 13.75H11.3335C12.0688 13.75 12.6668 13.1894 12.6668 12.5V5H14.0001V3.75H11.3335V2.5C11.3335 1.81062 10.7355 1.25 10.0001 1.25H6.00012C5.26479 1.25 4.66679 1.81062 4.66679 2.5V3.75H2.00012V5H3.33346V12.5ZM6.00012 2.5H10.0001V3.75H6.00012V2.5ZM5.33346 5H11.3335L11.3341 12.5H4.66679V5H5.33346Z" fill="black"/>
<path d="M6 6.25H7.33333V11.25H6V6.25ZM8.66667 6.25H10V11.25H8.66667V6.25Z" fill="black"/>
</svg>
