<svg width="16" height="16" viewBox="0 0 16 16" fill="none" xmlns="http://www.w3.org/2000/svg">
<g clip-path="url(#clip0_417_5068)">
<path fill-rule="evenodd" clip-rule="evenodd" d="M14.46 10.05C13.852 10.914 13.184 11.732 12.46 12.5C11.76 13.25 11.023 13.977 10.282 14.654C9.83499 15.061 9.48199 15.364 9.27199 15.539C8.53199 16.151 7.46199 16.151 6.71999 15.539C6.50999 15.364 6.15699 15.059 5.70999 14.653C4.96799 13.976 4.22599 13.253 3.52799 12.499C2.80799 11.732 2.14099 10.916 1.53499 10.056C0.629994 8.90504 0.0949945 7.50504 0.00299449 6.04304C-0.0470055 4.68304 0.472994 3.36304 1.44299 2.40804C3.23199 0.655036 6.05499 0.525036 7.99999 2.10804C9.94399 0.523036 12.768 0.652036 14.558 2.40804C15.522 3.36104 16.042 4.67404 15.994 6.02804C15.904 7.49404 15.369 8.89804 14.459 10.051L14.46 10.05Z" fill="#E92A2A"/>
</g>
<defs>
<clipPath id="clip0_417_5068">
<rect width="16" height="16" fill="white"/>
</clipPath>
</defs>
</svg>
