<svg width="16" height="16" viewBox="0 0 16 16" fill="none" xmlns="http://www.w3.org/2000/svg">
<g clip-path="url(#clip0_403_5044)">
<path fill-rule="evenodd" clip-rule="evenodd" d="M14.4601 10.05C13.8521 10.914 13.1841 11.732 12.4601 12.5C11.7601 13.25 11.0231 13.977 10.2821 14.654C9.83505 15.061 9.48206 15.364 9.27206 15.539C8.53206 16.151 7.46205 16.151 6.72005 15.539C6.51005 15.364 6.15705 15.059 5.71006 14.653C4.96806 13.976 4.22606 13.253 3.52806 12.499C2.80806 11.732 2.14106 10.916 1.53506 10.056C0.630056 8.90504 0.0950555 7.50504 0.00305553 6.04304C-0.0469445 4.68304 0.473055 3.36304 1.44306 2.40804C3.23206 0.655036 6.05505 0.525036 8.00005 2.10804C9.94405 0.523036 12.7681 0.652036 14.5581 2.40804C15.5221 3.36104 16.0421 4.67404 15.9941 6.02804C15.9041 7.49404 15.3691 8.89804 14.4591 10.051L14.4601 10.05ZM13.1431 3.83204C12.0031 2.70904 10.1731 2.70904 9.03005 3.83204L7.99706 4.85404L6.96406 3.83204C5.82006 2.71204 3.99106 2.71204 2.84606 3.83204C2.26606 4.40204 1.95606 5.19504 1.99606 6.01004C1.95606 8.99304 7.99605 13.997 7.99605 13.997C7.99605 13.997 14.0331 8.99704 13.9961 6.00704C14.0361 5.19404 13.7261 4.40204 13.1431 3.83204V3.83204Z" fill="white"/>
</g>
<defs>
<clipPath id="clip0_403_5044">
<rect width="16" height="16" fill="white"/>
</clipPath>
</defs>
</svg>
